<svg xmlns="http://www.w3.org/2000/svg" xmlns:xlink="http://www.w3.org/1999/xlink" viewBox="0 0 224.02 199.42"><defs><style>.cls-1,.cls-15,.cls-3,.cls-4{fill:none;}.cls-2{clip-path:url(#clip-path);}.cls-15,.cls-3,.cls-4,.cls-5,.cls-6{stroke:#5c4897;}.cls-15,.cls-3,.cls-5,.cls-6{stroke-miterlimit:10;}.cls-3,.cls-4,.cls-6{stroke-width:0.41px;}.cls-4{stroke-linecap:round;stroke-linejoin:round;}.cls-5,.cls-6{fill:#f6f6f6;}.cls-5{stroke-width:0.58px;}.cls-7{fill:#692381;}.cls-8{fill:#993d8f;}.cls-9{fill:#4f1e53;}.cls-10{fill:#a5589e;}.cls-11{fill:#bf4090;}.cls-12{fill:#7f388d;}.cls-13{fill:#2d183d;}.cls-14{fill:#e71c7d;}.cls-15{stroke-width:1.16px;}.cls-16{clip-path:url(#clip-path-2);}</style><clipPath id="clip-path"><polygon class="cls-1" points="9.68 110.75 116.79 51.24 116.79 86.49 9.68 110.75"/></clipPath><clipPath id="clip-path-2"><polygon class="cls-1" points="214.35 87.79 107.23 147.3 107.23 112.05 214.35 87.79"/></clipPath></defs><title>Recurso 2</title><g id="Capa_2" data-name="Capa 2"><g id="Capa_1-2" data-name="Capa 1"><g class="cls-2"><polyline class="cls-3" points="61.84 0.18 69.34 4.26 81.21 13.09 86.81 12.43 85.29 23.82 94.31 24.48 96.21 34.36 92.7 40.53 85.2 36.45 85.77 46.13 64.79 50.02 61.37 47.17 50.45 49.74 50.64 43.09 70.29 33.31 67.64 14.33 57.38 23.25 44.76 30.37"/><polyline class="cls-3" points="42.38 25.34 44.76 30.37 51.97 33.98 70.29 33.31 61.37 47.17"/><polyline class="cls-3" points="64.79 50.02 70.29 33.31 85.77 46.13 92.7 40.53 99.91 36.35 96.21 34.36 94.31 24.48 85.2 36.45 85.29 23.82 81.21 13.09"/><polyline class="cls-3" points="58.05 7.4 57.38 23.25 51.97 33.98 50.64 43.09 61.37 47.17"/><polyline class="cls-3" points="112.62 53.93 93.42 59.7 87.25 51.45 85.77 46.13"/><polyline class="cls-3" points="88.59 87.22 92.48 73.26 93.42 59.7 108.73 71.25 101.75 92.06 106.31 96.89 112.22 87.36 116.65 86.95 128.73 69.37 121.48 62.92 129.67 59.7 127.79 53.66 119.47 48.02 112.62 53.93 105.64 44.8 102.15 49.23 87.52 51.38 64.79 50.02 81.74 61.58 80.67 68.96 92.48 73.26 108.73 71.25 121.48 62.92"/><polyline class="cls-3" points="121.48 62.92 127.79 53.66 124.17 45.47 119.47 48.02 105.64 44.8 87.25 51.45 92.7 40.53"/><polyline class="cls-3" points="69.83 79.8 88.59 87.22 96.24 84.67 108.73 71.25"/><polyline class="cls-3" points="81.74 61.58 87.25 51.45 99.91 36.35 99.44 26"/><polyline class="cls-3" points="108.73 71.25 116.65 86.95 120.94 92.06 112.22 87.36 101.75 92.06 96.24 84.67 92.48 73.26"/><polyline class="cls-3" points="121.48 62.92 119.47 48.02 127.79 53.66 131.82 52.45 129.67 60.51 128.73 69.37"/><polyline class="cls-3" points="108.73 71.25 116.18 51.59 87.25 51.45"/><polyline class="cls-3" points="1.05 60.98 5.13 68.48 13.96 80.35 13.29 85.95 24.68 84.43 22.63 96.94 35.22 95.35 41.39 91.83 37.31 84.33 46.99 84.9 50.89 63.92 48.04 60.51 50.45 49.74 43.96 49.78 34.18 69.43 15.19 66.77 24.12 56.52 27.34 48.92"/><polyline class="cls-3" points="12.72 51.2 24.12 56.52 34.18 69.43 37.31 84.33 24.68 84.43 15.19 66.77 4.99 68.23 0.1 70.85"/><polyline class="cls-3" points="37.31 84.33 35.22 95.35 25.7 106.72 22.63 96.94 13.29 85.95 4.99 68.23 3.71 82.81"/><polyline class="cls-3" points="26.2 41.52 31.24 43.89 34.84 51.11 34.18 69.43 48.04 60.51"/><polyline class="cls-3" points="8.26 57.18 24.12 56.52 34.84 51.11 43.96 49.78 48.04 60.51 57.53 63.35 50.89 63.92 34.18 69.43 46.99 84.9 41.39 91.83 37.22 104.48 35.22 95.35 22.63 96.94 37.31 84.33 24.68 84.43 13.96 80.35"/><polyline class="cls-3" points="34.18 69.43 24.68 84.43 4.99 68.23 24.12 56.52"/><polyline class="cls-3" points="88.59 87.22 74.13 91.62 60.57 92.56 72.11 107.86 92.92 100.88 97.75 105.44 88.22 111.35 87.82 115.78 70.23 127.87 63.79 120.62 60.57 128.81 54.52 126.93 48.88 118.6 54.79 111.76 45.66 104.77 50.09 101.28 52.24 86.65 50.89 63.92 62.45 80.88 69.83 79.8 74.13 91.62 72.11 107.86 63.79 120.62 54.79 111.76 60.57 92.56 52.32 86.38 46.99 84.9"/><polyline class="cls-3" points="63.79 120.62 54.52 126.93 46.33 123.3 48.88 118.6 45.66 104.77 52.32 86.38 41.39 91.83"/><polyline class="cls-3" points="50.09 101.28 54.79 111.76 63.79 120.62 48.88 118.6 54.52 126.93 53.32 130.96 61.37 128.81 70.23 127.87 72.11 107.86 87.82 115.78 92.92 120.08 88.22 111.35 92.92 100.88 85.54 95.38 74.13 91.62 62.45 80.88 52.32 86.38 37.22 104.48 25.7 106.72"/><polyline class="cls-3" points="72.11 107.86 54.79 111.76 52.32 86.38 74.13 91.62"/><line class="cls-3" x1="37.22" y1="104.48" x2="45.66" y2="104.77"/><polyline class="cls-3" points="88.22 111.35 72.11 107.86 85.54 95.38 88.59 87.22 80.67 68.96 57.75 63.38 61.37 47.17"/><polyline class="cls-3" points="64.79 50.02 57.75 63.38 81.74 61.58"/><polyline class="cls-4" points="69.83 79.8 80.69 68.97 62.45 80.88 57.75 63.38 50.45 49.74"/><polyline class="cls-3" points="31.24 43.89 44.76 30.37 34.84 51.11 51.97 33.98 43.96 49.78"/></g><circle class="cls-5" cx="108.62" cy="71.3" r="0.97"/><circle class="cls-5" cx="96.14" cy="84.67" r="0.97"/><circle class="cls-6" cx="92.44" cy="73.26" r="0.97"/><circle class="cls-5" cx="88.53" cy="87.07" r="0.97"/><circle class="cls-6" cx="69.77" cy="79.95" r="0.69"/><circle class="cls-6" cx="74.07" cy="91.59" r="0.69"/><circle class="cls-6" cx="60.68" cy="92.75" r="0.69"/><polygon class="cls-7" points="12.11 110.01 24.57 103.1 25.7 106.72 12.11 110.01"/><polygon class="cls-8" points="25.7 106.72 35.58 96.98 24.57 103.1 25.7 106.72"/><polygon class="cls-9" points="25.7 106.72 35.58 96.98 35.58 96.98 37.22 104.48 25.7 106.72"/><polygon class="cls-10" points="37.22 104.48 40.69 93.96 35.46 96.43 37.22 104.48"/><polygon class="cls-11" points="40.69 93.96 37.22 104.48 52.17 87.15 40.69 93.96"/><polygon class="cls-12" points="52.17 87.15 50.22 101.58 37.22 104.48 52.17 87.15"/><polygon class="cls-7" points="52.17 87.15 64.61 97.92 50.22 101.58 52.17 87.15"/><polygon class="cls-10" points="52.17 87.15 61.32 92.5 64.48 97.8 52.17 87.15"/><polygon class="cls-11" points="61.32 92.5 63.11 81.49 52.17 87.15 61.32 92.5"/><polygon class="cls-12" points="61.32 92.5 74.31 91.68 63.11 81.49 61.32 92.5"/><polygon class="cls-11" points="74.18 91.65 74.07 75.24 63.11 81.49 74.18 91.65"/><polygon class="cls-9" points="64.61 97.92 74.18 91.65 61.32 92.5 64.61 97.92"/><polygon class="cls-13" points="64.61 97.92 74.18 91.65 82.07 94.36 64.61 97.92"/><polygon class="cls-10" points="74.18 91.65 74.07 75.24 88.53 87.07 74.18 91.65"/><polygon class="cls-9" points="82.07 94.36 88.53 87.07 74.18 91.65 82.07 94.36"/><polygon class="cls-7" points="82.07 94.36 88.53 87.07 100.38 90.22 82.07 94.36"/><polygon class="cls-14" points="74.07 75.24 82.86 69.49 88.53 87.07 74.07 75.24"/><polygon class="cls-15" points="9.68 110.76 116.8 51.25 116.8 86.5 9.68 110.76"/><g class="cls-16"><polyline class="cls-3" points="162.18 198.37 154.68 194.29 142.82 185.46 137.22 186.12 138.74 174.73 129.72 174.07 127.82 164.19 131.33 158.02 138.83 162.1 138.26 152.42 159.24 148.53 162.66 151.38 173.58 148.81 173.39 155.46 153.74 165.24 156.39 184.22 166.65 175.3 179.27 168.18"/><polyline class="cls-3" points="171.96 186.69 166.65 175.3 153.74 165.24 138.83 162.1 138.74 174.73 156.39 184.22 154.93 194.42 152.31 199.32"/><polyline class="cls-3" points="138.83 162.1 127.82 164.19 124.59 172.55 129.72 174.07 137.22 186.12 154.93 194.42 140.35 195.71"/><polyline class="cls-3" points="181.65 173.21 179.27 168.18 172.06 164.57 153.74 165.24 162.66 151.38"/><polyline class="cls-3" points="159.24 148.53 153.74 165.24 138.26 152.42 131.33 158.02 124.11 162.2 127.82 164.19 129.72 174.07 138.83 162.1 138.74 174.73 142.82 185.46"/><polyline class="cls-3" points="165.98 191.16 166.65 175.3 172.06 164.57 173.39 155.46 162.66 151.38"/><polyline class="cls-3" points="153.74 165.24 138.74 174.73 154.93 194.42 166.65 175.3"/><polyline class="cls-3" points="111.41 144.62 130.61 138.85 136.78 147.09 138.26 152.42"/><polyline class="cls-3" points="135.44 111.33 131.55 125.29 130.61 138.85 115.3 127.3 122.28 106.49 117.72 101.66 111.81 111.19 107.38 111.6 95.3 129.18 102.55 135.63 94.36 138.85 96.24 144.89 104.56 150.53 111.41 144.62 118.39 153.75 121.88 149.32 136.51 147.17 159.24 148.53 142.29 136.97 143.36 129.59 131.55 125.29 115.3 127.3 102.55 135.63"/><polyline class="cls-3" points="102.55 135.63 96.24 144.89 99.86 153.08 104.56 150.53 118.39 153.75 136.78 147.09 131.33 158.02"/><polyline class="cls-3" points="154.2 118.75 135.44 111.33 127.79 113.88 115.3 127.3"/><polyline class="cls-3" points="142.29 136.97 136.78 147.09 124.11 162.2 124.59 172.55"/><polyline class="cls-3" points="115.3 127.3 107.38 111.6 103.08 106.49 111.81 111.19 122.28 106.49 127.79 113.88 131.55 125.29"/><polyline class="cls-3" points="102.55 135.63 104.56 150.53 96.24 144.89 92.21 146.1 94.36 138.04 95.3 129.18"/><polyline class="cls-3" points="115.3 127.3 107.85 146.96 136.78 147.09"/><line class="cls-3" x1="124.11" y1="162.2" x2="118.39" y2="153.75"/><polyline class="cls-3" points="222.98 137.57 218.9 130.07 210.07 118.2 210.74 112.6 199.34 114.12 201.4 101.61 188.81 103.2 182.63 106.72 186.72 114.22 177.03 113.65 173.14 134.63 175.99 138.05 173.58 148.81 180.07 148.77 189.85 129.12 208.84 131.78 199.91 142.03 196.69 149.63"/><polyline class="cls-3" points="211.31 147.35 199.91 142.03 189.85 129.12 186.72 114.22 199.34 114.12 208.84 131.78 219.03 130.32 223.93 127.7"/><polyline class="cls-3" points="186.72 114.22 188.81 103.2 198.32 91.83 201.4 101.61 210.74 112.6 219.03 130.32 220.32 115.74"/><polyline class="cls-3" points="197.82 157.03 192.79 154.66 189.19 147.44 189.85 129.12 175.99 138.05"/><polyline class="cls-3" points="215.77 141.37 199.91 142.03 189.19 147.44 180.07 148.77 175.99 138.05 166.5 135.2 173.14 134.63 189.85 129.12 177.03 113.65 182.63 106.72 186.81 94.07 188.81 103.2 201.4 101.61 186.72 114.22 199.34 114.12 210.07 118.2"/><polyline class="cls-3" points="189.85 129.12 199.34 114.12 219.03 130.32 199.91 142.03"/><polyline class="cls-3" points="135.44 111.33 149.9 106.93 163.46 105.99 151.92 90.69 131.11 97.67 126.27 93.11 135.81 87.2 136.21 82.77 153.8 70.68 160.24 77.93 163.46 69.74 169.5 71.62 175.14 79.95 169.24 86.8 178.37 93.78 173.94 97.27 171.79 111.9 173.14 134.63 161.58 117.67 154.2 118.75 149.9 106.93 151.92 90.69 160.24 77.93 169.24 86.8 163.46 105.99 171.71 112.17 177.03 113.65"/><polyline class="cls-3" points="160.24 77.93 169.5 71.62 177.69 75.25 175.14 79.95 178.37 93.78 171.71 112.17 182.63 106.72"/><polyline class="cls-3" points="173.94 97.27 169.24 86.8 160.24 77.93 175.14 79.95 169.5 71.62 170.71 67.6 162.66 69.74 153.8 70.68 151.92 90.69 136.21 82.77 131.11 78.47 135.81 87.2 131.11 97.67 138.49 103.17 149.9 106.93 161.58 117.67 171.71 112.17 186.81 94.07 198.32 91.83"/><polyline class="cls-3" points="151.92 90.69 169.24 86.8 171.71 112.17 149.9 106.93"/><line class="cls-3" x1="186.81" y1="94.07" x2="178.37" y2="93.78"/><polyline class="cls-3" points="135.81 87.2 151.92 90.69 138.49 103.17 135.44 111.33 143.36 129.59 166.28 135.17 162.66 151.38"/><polyline class="cls-3" points="159.24 148.53 166.28 135.17 142.29 136.97"/><polyline class="cls-4" points="154.2 118.75 143.34 129.58 161.58 117.67 166.28 135.17 173.58 148.81"/><polyline class="cls-3" points="192.79 154.66 179.27 168.18 189.19 147.44 172.06 164.57 180.07 148.77"/></g><circle class="cls-5" cx="115.41" cy="127.25" r="0.97"/><circle class="cls-5" cx="127.89" cy="113.88" r="0.97"/><circle class="cls-6" cx="131.59" cy="125.29" r="0.97"/><circle class="cls-5" cx="135.49" cy="111.48" r="0.97"/><circle class="cls-6" cx="154.25" cy="118.6" r="0.69"/><circle class="cls-6" cx="149.96" cy="106.96" r="0.69"/><circle class="cls-6" cx="163.35" cy="105.8" r="0.69"/><polygon class="cls-13" points="211.92 88.54 199.46 95.45 198.32 91.83 211.92 88.54"/><polygon class="cls-9" points="198.32 91.83 188.45 101.57 199.46 95.45 198.32 91.83"/><polygon class="cls-12" points="198.32 91.83 188.45 101.57 188.45 101.57 186.81 94.07 198.32 91.83"/><polygon class="cls-8" points="186.81 94.07 183.34 104.59 188.57 102.12 186.81 94.07"/><polygon class="cls-9" points="183.34 104.59 186.81 94.07 171.86 111.4 183.34 104.59"/><polygon class="cls-10" points="171.86 111.4 173.8 96.97 186.81 94.07 171.86 111.4"/><polygon class="cls-11" points="171.86 111.4 159.42 100.63 173.8 96.97 171.86 111.4"/><polygon class="cls-10" points="171.86 111.4 162.71 106.05 159.55 100.75 171.86 111.4"/><polygon class="cls-7" points="162.71 106.05 160.92 117.06 171.86 111.4 162.71 106.05"/><polygon class="cls-12" points="162.71 106.05 149.72 106.87 160.92 117.06 162.71 106.05"/><polygon class="cls-11" points="149.85 106.9 149.96 123.31 160.92 117.06 149.85 106.9"/><polygon class="cls-14" points="159.42 100.63 149.85 106.9 162.71 106.05 159.42 100.63"/><polygon class="cls-10" points="159.42 100.63 149.85 106.9 141.96 104.19 159.42 100.63"/><polygon class="cls-10" points="149.85 106.9 149.96 123.31 135.5 111.48 149.85 106.9"/><polygon class="cls-11" points="141.96 104.19 135.5 111.48 149.85 106.9 141.96 104.19"/><polygon class="cls-14" points="141.96 104.19 135.5 111.48 123.65 108.33 141.96 104.19"/><polygon class="cls-12" points="149.96 123.31 141.17 129.06 135.5 111.48 149.96 123.31"/><polygon class="cls-15" points="214.35 87.79 107.23 147.3 107.23 112.05 214.35 87.79"/></g></g></svg>