<svg xmlns="http://www.w3.org/2000/svg" viewBox="0 0 231.87 140.46"><defs><style>.cls-1{fill:#fff;}</style></defs><title>Recurso 1</title><g id="Capa_2" data-name="Capa 2"><g id="Capa_1-2" data-name="Capa 1"><path class="cls-1" d="M7.39,40.15,14,7.64,20.56,40.2h0c.62,2.94,0,0,.59,2.77h0l3.36,16.7h3.62L15.71.93H12.44L0,59.64H3.44L6.8,42.94"/><path class="cls-1" d="M66.3.88V47.79A12.63,12.63,0,0,1,62.94,57a12,12,0,0,1-16.87.09A12.58,12.58,0,0,1,42.8,48V.88h3.44V47.71a10.2,10.2,0,0,0,2.31,7.09,8.5,8.5,0,0,0,12,.13l.14-.13A10.24,10.24,0,0,0,63,47.71V.88Z"/><path class="cls-1" d="M98.19,30.64h11.33v16.7A13,13,0,0,1,106,56.82a12.46,12.46,0,0,1-17.45.09,13,13,0,0,1-3.4-9.4V13.13a13.06,13.06,0,0,1,3.48-9.48A11.68,11.68,0,0,1,97.43,0a11.48,11.48,0,0,1,8.68,3.53,13,13,0,0,1,3.4,9.39v6h-3.38v-5.7a10.56,10.56,0,0,0-2.43-7.39,8.93,8.93,0,0,0-12.63-.13l-.13.13a10.56,10.56,0,0,0-2.43,7.39V47.33a10.6,10.6,0,0,0,2.43,7.38,8.92,8.92,0,0,0,12.6.16l.16-.16a10.6,10.6,0,0,0,2.43-7.38V33.64h-8v-3Z"/><path class="cls-1" d="M151.89.88V47.79A12.63,12.63,0,0,1,148.53,57a12,12,0,0,1-16.86.09A12.55,12.55,0,0,1,128.39,48V.88h3.45V47.71a10.2,10.2,0,0,0,2.3,7.09,8.5,8.5,0,0,0,12,.13l.14-.13a10.2,10.2,0,0,0,2.31-7.09V.88Z"/><path class="cls-1" d="M175.3,19.85a38,38,0,0,0,6.63,7.47,46.66,46.66,0,0,1,8.48,10,20.17,20.17,0,0,1,2.85,10.49A12.46,12.46,0,0,1,189.78,57,11.93,11.93,0,0,1,181,60.49a11.3,11.3,0,0,1-8.6-3.53,13.19,13.19,0,0,1-3.31-9.4V44.12h3.18v3.19a10.54,10.54,0,0,0,2.44,7.38,8.2,8.2,0,0,0,6.38,2.69,8.42,8.42,0,0,0,6.37-2.56,9.88,9.88,0,0,0,2.44-7.1,16.81,16.81,0,0,0-2.52-9,42.62,42.62,0,0,0-7.89-9q-9.74-9-9.73-17.46a12,12,0,0,1,3.36-8.89A11.46,11.46,0,0,1,181.6,0a10.85,10.85,0,0,1,8.31,3.4c2.13,2.26,3.18,5.3,3.18,9.1v2.61h-3.18V12.76a10.2,10.2,0,0,0-2.31-7.09,7.79,7.79,0,0,0-6.08-2.56,7.88,7.88,0,0,0-6.09,2.53,9.49,9.49,0,0,0-2.3,6.75A13.72,13.72,0,0,0,175.3,19.85Z"/><path class="cls-1" d="M221,3.82V59.64H217.6V3.84H206.69V.9h25.18V3.84Z"/><path class="cls-1" d="M.47,80.88H11.05a12.45,12.45,0,0,1,9.4,3.65Q24,88.19,24,94.65v1.26q0,9.39-7,12.67a10.93,10.93,0,0,1,5.79,4.7,15.18,15.18,0,0,1,2.1,8.22v4.2c0,4.31-1.2,7.7-3.61,10.2a12.63,12.63,0,0,1-9.48,3.73H.47ZM3.83,107.4H11a9.16,9.16,0,0,0,7-2.81c1.74-1.88,2.61-4.57,2.61-8.1V94.73q0-5.3-2.61-8.1a9.09,9.09,0,0,0-7-2.81H3.83Zm0,29.29h8a9.14,9.14,0,0,0,7-2.81c1.74-1.88,2.61-4.59,2.61-8.11v-4.69q0-5.31-2.61-8.1a9.08,9.08,0,0,0-7-2.81h-8Z"/><path class="cls-1" d="M42.43,93.13a13.06,13.06,0,0,1,3.48-9.48A11.68,11.68,0,0,1,54.68,80a11.52,11.52,0,0,1,8.68,3.53A13,13,0,0,1,66.76,93v34.41a13.07,13.07,0,0,1-3.48,9.48,12.47,12.47,0,0,1-17.46.08,13,13,0,0,1-3.4-9.4V93.13Zm3.36,34.16a10.6,10.6,0,0,0,2.43,7.38,8.92,8.92,0,0,0,12.6.16l.16-.16a10.6,10.6,0,0,0,2.43-7.38V93.22A10.56,10.56,0,0,0,61,85.83a8.93,8.93,0,0,0-12.63-.13,1.59,1.59,0,0,0-.13.13,10.56,10.56,0,0,0-2.43,7.39Z"/><path class="cls-1" d="M82.29,139.64v-2.09L99.75,83.84H83.55V80.9h19.72V83L85.82,136.71h17.45v2.93Z"/><path class="cls-1" d="M122.4,120.15,129,87.64l6.54,32.56h0c.62,2.94,0,0,.59,2.77h0l3.35,16.7h3.61L130.71,80.93h-3.27L115,139.64h3.43l3.36-16.7"/></g></g></svg>